<svg width="63" height="25" viewBox="0 0 63 25" fill="none" xmlns="http://www.w3.org/2000/svg">
<g clip-path="url(#clip0_1_4)">
<path d="M43.2112 24.3987C49.1585 24.3987 53.9801 19.6419 53.9801 13.7737C53.9801 7.90541 49.1592 3.14865 43.2112 3.14865C37.2631 3.14865 32.4416 7.90541 32.4416 13.7737C32.4416 19.6419 37.2631 24.3987 43.2112 24.3987Z" fill="url(#paint0_linear_1_4)"/>
<path d="M26.9893 8.39527C29.2662 8.39527 31.1117 6.51622 31.1117 4.1973C31.1117 1.87973 29.2655 0 26.9893 0C24.7131 0 22.8683 1.87905 22.8683 4.1973C22.8683 6.51622 24.7131 8.39527 26.9893 8.39527Z" fill="url(#paint1_linear_1_4)"/>
<path d="M58.5024 24.3932C60.8518 24.3932 62.7569 22.5723 62.7569 20.3263C62.7569 18.0804 60.8518 16.2601 58.5024 16.2601C56.1522 16.2601 54.2478 18.0804 54.2478 20.3263C54.2478 22.5723 56.1522 24.3932 58.5024 24.3932Z" fill="#F34C5D"/>
<path d="M21.5385 0.261475C18.7856 0.261475 16.4163 1.8331 15.2843 4.12161C13.8667 3.47106 12.3214 3.1359 10.7579 3.13985C4.81676 3.13985 0 7.89931 0 13.7689C0 19.6385 4.81676 24.398 10.7579 24.398C16.6991 24.398 21.5159 19.6385 21.5159 13.7689L21.5385 0.26215V0.261475Z" fill="url(#paint2_linear_1_4)"/>
<path d="M26.9592 8.39526C25.8743 8.39562 24.834 8.82101 24.0669 9.57792C23.2998 10.3348 22.8686 11.3613 22.8683 12.4317V24.6615C27.4228 24.6615 31.111 21.0223 31.111 16.5284V12.4919C31.1097 11.4058 30.6719 10.3645 29.8936 9.59652C29.1152 8.82852 28.0599 8.39652 26.9592 8.39526Z" fill="url(#paint3_linear_1_4)"/>
</g>
<defs>
<linearGradient id="paint0_linear_1_4" x1="32.4361" y1="13.7743" x2="53.9807" y2="13.7743" gradientUnits="userSpaceOnUse">
<stop stop-color="#6948D0"/>
<stop offset="1" stop-color="#DF4D68"/>
</linearGradient>
<linearGradient id="paint1_linear_1_4" x1="22.8683" y1="4.2" x2="31.1083" y2="4.2" gradientUnits="userSpaceOnUse">
<stop stop-color="#4E67DE"/>
<stop offset="1" stop-color="#6948D0"/>
</linearGradient>
<linearGradient id="paint2_linear_1_4" x1="-0.00547826" y1="12.3311" x2="21.5392" y2="12.3311" gradientUnits="userSpaceOnUse">
<stop stop-color="#18B0F4"/>
<stop offset="1" stop-color="#4E67DE"/>
</linearGradient>
<linearGradient id="paint3_linear_1_4" x1="22.8649" y1="16.5304" x2="31.1076" y2="16.5304" gradientUnits="userSpaceOnUse">
<stop stop-color="#4E67DE"/>
<stop offset="1" stop-color="#6948D0"/>
</linearGradient>
<clipPath id="clip0_1_4">
<rect width="63" height="25" fill="white"/>
</clipPath>
</defs>
</svg>
